<svg xmlns="http://www.w3.org/2000/svg" xmlns:xlink="http://www.w3.org/1999/xlink" width="22" height="20" viewBox="0 0 22 20">
    <defs>
        <path id="a" d="M10.691 0C4.79 0 0 4.48 0 10s4.79 10 10.691 10c5.902 0 10.692-4.48 10.692-10S16.593 0 10.69 0zm0 3C12.466 3 13.9 4.34 13.9 6s-1.433 3-3.208 3C8.917 9 7.484 7.66 7.484 6s1.433-3 3.207-3zm0 14.2c-2.672 0-5.035-1.28-6.414-3.22.032-1.99 4.276-3.08 6.414-3.08 2.128 0 6.383 1.09 6.415 3.08-1.379 1.94-3.742 3.22-6.415 3.22z"/>
    </defs>
    <use fill="#D1D1D1" fill-rule="evenodd" transform="translate(.106)" xlink:href="#a"/>
</svg>
