<svg xmlns="http://www.w3.org/2000/svg" xmlns:xlink="http://www.w3.org/1999/xlink" width="71" height="71" viewBox="0 0 71 71">
    <defs>
        <path id="a" d="M35.492 70.578C15.89 70.578 0 54.778 0 35.288 0 17.396 13.396 2.615 30.76.314v7.11a4.68 4.68 0 0 1-3.184 4.445C17.558 15.215 10.39 24.736 10.654 35.884c.322 13.572 11.441 24.243 25.094 24.106 13.603-.137 24.589-11.144 24.589-24.701 0-.31-.008-.617-.02-.923l-.007-.206c-.013-.284-.03-.568-.053-.85-.007-.09-.016-.179-.024-.268a22.958 22.958 0 0 0-.145-1.249l-.043-.3C57.003 11.57 30.906.373 30.763.313A36.058 36.058 0 0 1 35.492 0c19.602 0 35.492 15.8 35.492 35.289 0 19.49-15.89 35.289-35.492 35.289"/>
    </defs>
    <g fill="none" fill-rule="evenodd">
        <path fill="#5FCAF4" d="M35.492.422C15.89.422 0 16.222 0 35.712c0 17.893 13.396 32.674 30.76 34.975v-7.11a4.68 4.68 0 0 0-3.184-4.445C17.558 55.785 10.39 46.264 10.654 35.116c.322-13.572 11.441-24.243 25.094-24.106 13.603.137 24.589 11.144 24.589 24.701 0 .31-.008.617-.02.923l-.007.206c-.013.284-.03.568-.053.85-.007.09-.016.179-.024.268a22.958 22.958 0 0 1-.145 1.249l-.043.3c-3.042 19.923-29.139 31.12-29.282 31.18 1.547.205 3.126.313 4.729.313 19.602 0 35.492-15.8 35.492-35.289 0-19.49-15.89-35.289-35.492-35.289"/>
        <g transform="matrix(1 0 0 -1 0 71)">
            <mask id="b" fill="#fff">
                <use xlink:href="#a"/>
            </mask>
            <g fill="#5FCAF4" mask="url(#b)">
                <path d="M-5.389-5.355h81.762v81.288H-5.389V-5.355"/>
            </g>
        </g>
    </g>
</svg>
