<svg xmlns="http://www.w3.org/2000/svg" xmlns:xlink="http://www.w3.org/1999/xlink" width="14" height="14" viewBox="0 0 14 14">
    <defs>
        <path id="a" d="M6.998 13.917C3.133 13.917 0 10.8 0 6.958 0 3.43 2.641.515 6.065.062v1.402c0 .395-.25.75-.627.876A4.874 4.874 0 0 0 2.1 7.076c.063 2.676 2.256 4.78 4.948 4.753 2.682-.027 4.848-2.197 4.848-4.87 0-.062-.001-.122-.003-.183l-.002-.04a5.059 5.059 0 0 0-.01-.168l-.005-.053a4.527 4.527 0 0 0-.029-.246l-.008-.06C11.24 2.282 6.094.075 6.066.063A7.11 7.11 0 0 1 6.998 0c3.866 0 6.999 3.115 6.999 6.958s-3.133 6.959-6.999 6.959"/>
    </defs>
    <g fill="none" fill-rule="evenodd">
        <path fill="#5FCAF4" d="M6.998.083C3.133.083 0 3.2 0 7.042c0 3.528 2.641 6.443 6.065 6.896v-1.402c0-.395-.25-.75-.627-.876A4.874 4.874 0 0 1 2.1 6.924c.063-2.676 2.256-4.78 4.948-4.753 2.682.027 4.848 2.197 4.848 4.87 0 .062-.001.122-.003.183l-.002.04a5.059 5.059 0 0 1-.01.168l-.005.053a4.527 4.527 0 0 1-.029.246l-.008.06c-.6 3.928-5.746 6.135-5.774 6.147.305.04.616.062.932.062 3.866 0 6.999-3.115 6.999-6.958S10.864.083 6.998.083"/>
        <g transform="matrix(1 0 0 -1 0 14)">
            <mask id="b" fill="#fff">
                <use xlink:href="#a"/>
            </mask>
            <g fill="#5FCAF4" mask="url(#b)">
                <path d="M-1.063-1.056H15.06v16.029H-1.063V-1.056"/>
            </g>
        </g>
    </g>
</svg>
