<?xml version="1.0" encoding="UTF-8"?>
<svg width="18px" height="18px" viewBox="0 0 18 18" version="1.1" xmlns="http://www.w3.org/2000/svg" xmlns:xlink="http://www.w3.org/1999/xlink">
    <!-- Generator: sketchtool 52.5 (67469) - http://www.bohemiancoding.com/sketch -->
    <title>C5662E76-A261-476E-906D-C650F9218C9D</title>
    <desc>Created with sketchtool.</desc>
    <g id="Page-1" stroke="none" stroke-width="1" fill="none" fill-rule="evenodd">
        <g id="Top&gt;myskills&gt;newskill&gt;name&amp;info" transform="translate(-709.000000, -1285.000000)">
            <g id="canada" transform="translate(709.000000, 1285.000000)">
                <circle id="Oval" fill="#F0F0F0" cx="9" cy="9" r="9"></circle>
                <g id="Group" transform="translate(0.000000, 0.878906)" fill="#D80027">
                    <path d="M18,8.12109375 C18,4.55294531 15.9234961,1.46988281 12.9130312,0.0141328125 L12.9130312,16.2280195 C15.9234961,14.7723047 18,11.6892422 18,8.12109375 Z" id="Path"></path>
                    <path d="M0,8.12109375 C0,11.6892422 2.07650391,14.7723047 5.08696875,16.2280547 L5.08696875,0.0141328125 C2.07650391,1.46988281 0,4.55294531 0,8.12109375 Z" id="Path"></path>
                    <polygon id="Path" points="10.5652266 9.29499609 12.130418 8.51238281 11.3478398 8.12109375 11.3478398 7.33848047 9.78261328 8.12109375 10.5652266 6.55586719 9.78261328 6.55586719 9 5.38196484 8.21738672 6.55586719 7.43477344 6.55586719 8.21738672 8.12109375 6.65216016 7.33848047 6.65216016 8.12109375 5.86958203 8.51238281 7.43477344 9.29499609 7.04348438 10.0776094 8.60871094 10.0776094 8.60871094 11.2515117 9.39128906 11.2515117 9.39128906 10.0776094 10.9565156 10.0776094"></polygon>
                </g>
            </g>
        </g>
    </g>
</svg>