<svg xmlns="http://www.w3.org/2000/svg" width="19" height="20" viewBox="0 0 19 20">
    <g fill="#31A79B" fill-rule="evenodd">
        <path d="M9.298.718C4.172.718 0 4.902 0 10.043c0 5.142 4.172 9.325 9.298 9.325 5.127 0 9.299-4.183 9.299-9.325 0-5.141-4.172-9.325-9.299-9.325zm0 17.146c-4.3 0-7.8-3.508-7.8-7.82 0-4.315 3.5-7.823 7.8-7.823s7.8 3.51 7.8 7.822c0 4.313-3.5 7.821-7.8 7.821z"/>
        <path d="M12.262 7.07l-4.34 4.353L6.333 9.83a.747.747 0 0 0-1.058 0 .751.751 0 0 0 0 1.063l2.118 2.125a.748.748 0 0 0 1.06 0l4.869-4.885a.751.751 0 0 0-1.06-1.063z"/>
    </g>
</svg>
