<svg xmlns="http://www.w3.org/2000/svg" width="15" height="18" viewBox="0 0 15 18">
    <g fill="#EF6972" fill-rule="evenodd">
        <path d="M9.793 6.533a.42.42 0 0 0-.42.42v7.93a.42.42 0 0 0 .84 0v-7.93a.42.42 0 0 0-.42-.42zM4.842 6.533a.42.42 0 0 0-.42.42v7.93a.42.42 0 0 0 .84 0v-7.93a.42.42 0 0 0-.42-.42z"/>
        <path fill-rule="nonzero" d="M1.234 5.376v10.337c0 .611.224 1.185.615 1.597.39.413.932.647 1.5.648h7.938a2.066 2.066 0 0 0 1.499-.648c.391-.412.615-.986.615-1.597V5.376a1.603 1.603 0 0 0-.41-3.152h-2.15v-.525A1.648 1.648 0 0 0 9.182.042H5.454a1.648 1.648 0 0 0-1.662 1.657v.525H1.645a1.603 1.603 0 0 0-.411 3.152zm10.053 11.743H3.348c-.717 0-1.275-.616-1.275-1.406v-10.3h10.49v10.3c0 .79-.559 1.406-1.276 1.406zM4.632 1.699a.808.808 0 0 1 .823-.818H9.18a.808.808 0 0 1 .823.818v.525h-5.37v-.525zM1.645 3.063H12.99a.755.755 0 1 1 0 1.51H1.645a.755.755 0 1 1 0-1.51z"/>
        <path d="M7.317 6.533a.42.42 0 0 0-.42.42v7.93a.42.42 0 0 0 .84 0v-7.93a.42.42 0 0 0-.42-.42z"/>
    </g>
</svg>
