<svg xmlns="http://www.w3.org/2000/svg" width="12" height="14" viewBox="0 0 12 14">
    <g fill="#EF6972" fill-rule="evenodd">
        <path d="M7.617 5.081a.326.326 0 0 0-.327.327v6.167a.326.326 0 0 0 .653 0V5.408a.326.326 0 0 0-.326-.327zM3.766 5.081a.326.326 0 0 0-.326.327v6.167a.326.326 0 0 0 .652 0V5.408a.326.326 0 0 0-.326-.327z"/>
        <path fill-rule="nonzero" d="M.96 4.181v8.04c0 .476.174.922.478 1.242.303.321.725.504 1.166.504H8.78c.441 0 .863-.183 1.166-.504a1.8 1.8 0 0 0 .478-1.242v-8.04a1.247 1.247 0 0 0-.32-2.451h-1.67v-.408A1.282 1.282 0 0 0 7.14.032H4.242a1.282 1.282 0 0 0-1.292 1.29v.408H1.28A1.247 1.247 0 0 0 .96 4.18zm7.819 9.134H2.604c-.558 0-.992-.48-.992-1.094V4.21h8.159v8.011c0 .614-.434 1.094-.992 1.094zM3.603 1.322a.628.628 0 0 1 .64-.637H7.14a.629.629 0 0 1 .64.637v.408H3.603v-.408zm-2.324 1.06h8.824a.587.587 0 1 1 0 1.175H1.28a.587.587 0 1 1 0-1.175z"/>
        <path d="M5.691 5.081a.326.326 0 0 0-.326.327v6.167a.326.326 0 0 0 .653 0V5.408a.326.326 0 0 0-.327-.327z"/>
    </g>
</svg>
