<svg xmlns="http://www.w3.org/2000/svg" width="30" height="30" viewBox="0 0 30 30">
    <g fill="none" fill-rule="evenodd">
        <path fill="#3EB3AA" d="M15 30C6.73 30 0 23.27 0 15S6.73 0 15 0s15 6.73 15 15-6.73 15-15 15z" opacity=".854"/>
        <path fill="#3EB3AA" d="M22 25c-8.27 0-15-6.73-15-15C7 6.538 8.19 3.355 10.168.814 4.264 2.83 0 8.42 0 15c0 8.27 6.73 15 15 15 4.809 0 9.085-2.284 11.832-5.813-1.519.518-3.14.813-4.832.813z"/>
        <path fill="#FFF" d="M11.897 22.759a1.03 1.03 0 0 1-.732-.303l-6.207-6.207a1.034 1.034 0 1 1 1.463-1.463l5.476 5.475L22.544 9.613a1.034 1.034 0 1 1 1.463 1.463l-11.38 11.38a1.03 1.03 0 0 1-.73.303z"/>
    </g>
</svg>
