<svg xmlns="http://www.w3.org/2000/svg" width="19" height="18" viewBox="0 0 19 18">
    <g fill="#A5AEBE" fill-rule="evenodd">
        <path d="M16.677 11.294a.45.45 0 0 0-.45.45v3.995c-.001.746-.605 1.35-1.35 1.35H2.25c-.745 0-1.35-.604-1.35-1.35V4.013c0-.745.605-1.35 1.35-1.35h3.996a.45.45 0 1 0 0-.9H2.25A2.253 2.253 0 0 0 0 4.013v11.726a2.253 2.253 0 0 0 2.25 2.25h12.627a2.253 2.253 0 0 0 2.25-2.25v-3.995a.45.45 0 0 0-.45-.45z"/>
        <path fill-rule="nonzero" d="M16.948.605a2.025 2.025 0 0 0-2.864 0L6.056 8.633a.45.45 0 0 0-.115.198l-1.056 3.812a.45.45 0 0 0 .554.554L9.25 12.14a.45.45 0 0 0 .198-.116l8.028-8.028c.79-.792.79-2.073 0-2.864l-.528-.528zm-9.911 8.32l6.57-6.57 2.12 2.119-6.571 6.57-2.12-2.118zm-.424.85l1.693 1.693-2.341.649.648-2.342zM16.84 3.36l-.477.478-2.12-2.12.478-.477c.44-.44 1.152-.44 1.59 0l.529.528c.439.44.439 1.152 0 1.591z"/>
    </g>
</svg>
