<svg xmlns="http://www.w3.org/2000/svg" xmlns:xlink="http://www.w3.org/1999/xlink" width="24" height="16" viewBox="0 0 24 16">
    <defs>
        <path id="a" d="M11.76.5C6.415.5 1.85 3.61 0 8c1.85 4.39 6.415 7.5 11.76 7.5 5.346 0 9.911-3.11 11.761-7.5-1.85-4.39-6.415-7.5-11.76-7.5zm0 12.5c-2.95 0-5.345-2.24-5.345-5S8.81 3 11.76 3c2.951 0 5.346 2.24 5.346 5s-2.395 5-5.346 5zm0-8C9.986 5 8.553 6.34 8.553 8s1.433 3 3.207 3c1.775 0 3.208-1.34 3.208-3s-1.433-3-3.208-3z"/>
    </defs>
    <use fill="#D1D1D1" fill-rule="evenodd" transform="translate(.183)" xlink:href="#a"/>
</svg>
