<?xml version="1.0" encoding="UTF-8"?>
<svg width="22px" height="20px" viewBox="0 0 22 20" version="1.1" xmlns="http://www.w3.org/2000/svg" xmlns:xlink="http://www.w3.org/1999/xlink">
    <!-- Generator: sketchtool 52.5 (67469) - http://www.bohemiancoding.com/sketch -->
    <title>EECA1717-14B8-4450-B07C-A093DC017734</title>
    <desc>Created with sketchtool.</desc>
    <g id="Page-1" stroke="none" stroke-width="1" fill="none" fill-rule="evenodd">
        <g id="Title&gt;login" transform="translate(-575.000000, -644.000000)" fill="#FFFFFF" fill-rule="nonzero">
            <g id="Group-2" transform="translate(433.000000, 163.000000)">
                <g id="Group" transform="translate(125.000000, 151.000000)">
                    <g id="Social-Login" transform="translate(0.000000, 314.000000)">
                        <g id="fb">
                            <path d="M37.3080102,16 L18.2863597,16 C17.6350057,16 17.1061766,16.4936442 17.1061766,17.1038662 L17.1061766,34.8954752 C17.1061766,35.5056972 17.6350057,36 18.2863597,36 L28.5270536,36 L28.5270536,28.2548245 L25.7406666,28.2548245 L25.7406666,25.2359876 L28.5270536,25.2359876 L28.5270536,23.0098136 C28.5270536,20.4269907 30.2131803,19.0198248 32.677059,19.0198248 C33.8582983,19.0198248 34.8712419,19.102483 35.1666398,19.1383784 L35.1666398,21.8381084 L33.4576276,21.838767 C32.1179508,21.838767 31.8595217,22.4344991 31.8595217,23.3081736 L31.8595217,25.2349997 L35.0557335,25.2349997 L34.6378107,28.2535072 L31.8591696,28.2535072 L31.8591696,35.9990121 L37.3076581,35.9990121 C37.9597163,35.9990121 38.4888974,35.5040506 38.4888974,34.8954752 L38.4888974,17.1032075 C38.4885454,16.4936442 37.9600684,16 37.3080102,16 Z" id="FB"></path>
                        </g>
                    </g>
                </g>
            </g>
        </g>
    </g>
</svg>