<?xml version="1.0" encoding="UTF-8"?>
<svg width="12px" height="14px" viewBox="0 0 12 14" version="1.1" xmlns="http://www.w3.org/2000/svg" xmlns:xlink="http://www.w3.org/1999/xlink">
    <!-- Generator: Sketch 52.5 (67469) - http://www.bohemiancoding.com/sketch -->
    <title>file (1)</title>
    <desc>Created with Sketch.</desc>
    <g id="Page-1" stroke="none" stroke-width="1" fill="none" fill-rule="evenodd">
        <g id="Top&gt;-world" transform="translate(-663.000000, -378.000000)" fill="#4786FF">
            <g id="Group-5" transform="translate(628.000000, 239.000000)">
                <g id="file-(1)" transform="translate(35.000000, 139.000000)">
                    <path d="M8.51666667,5.13333333 L2.68333333,5.13333333 C2.55453333,5.13333333 2.45,5.23763333 2.45,5.36666667 C2.45,5.4957 2.55453333,5.6 2.68333333,5.6 L8.51666667,5.6 C8.64546667,5.6 8.75,5.4957 8.75,5.36666667 C8.75,5.23763333 8.64546667,5.13333333 8.51666667,5.13333333 Z" id="Path"></path>
                    <path d="M2.68333333,3.73333333 L5.01666667,3.73333333 C5.14546667,3.73333333 5.25,3.62903333 5.25,3.5 C5.25,3.37096667 5.14546667,3.26666667 5.01666667,3.26666667 L2.68333333,3.26666667 C2.55453333,3.26666667 2.45,3.37096667 2.45,3.5 C2.45,3.62903333 2.55453333,3.73333333 2.68333333,3.73333333 Z" id="Path"></path>
                    <path d="M8.51666667,7 L2.68333333,7 C2.55453333,7 2.45,7.1043 2.45,7.23333333 C2.45,7.36236667 2.55453333,7.46666667 2.68333333,7.46666667 L8.51666667,7.46666667 C8.64546667,7.46666667 8.75,7.36236667 8.75,7.23333333 C8.75,7.1043 8.64546667,7 8.51666667,7 Z" id="Path"></path>
                    <path d="M8.51666667,8.86666667 L2.68333333,8.86666667 C2.55453333,8.86666667 2.45,8.97096667 2.45,9.1 C2.45,9.22903333 2.55453333,9.33333333 2.68333333,9.33333333 L8.51666667,9.33333333 C8.64546667,9.33333333 8.75,9.22903333 8.75,9.1 C8.75,8.97096667 8.64546667,8.86666667 8.51666667,8.86666667 Z" id="Path"></path>
                    <path d="M8.51666667,10.7333333 L2.68333333,10.7333333 C2.55453333,10.7333333 2.45,10.8376333 2.45,10.9666667 C2.45,11.0957 2.55453333,11.2 2.68333333,11.2 L8.51666667,11.2 C8.64546667,11.2 8.75,11.0957 8.75,10.9666667 C8.75,10.8376333 8.64546667,10.7333333 8.51666667,10.7333333 Z" id="Path"></path>
                    <path d="M7.67993333,0 L0.116666667,0 L0.116666667,14 L11.0833333,14 L11.0833333,3.4034 L7.67993333,0 Z M7.81666667,0.7966 L10.2867333,3.26666667 L7.81666667,3.26666667 L7.81666667,0.7966 Z M0.583333333,13.5333333 L0.583333333,0.466666667 L7.35,0.466666667 L7.35,3.73333333 L10.6166667,3.73333333 L10.6166667,13.5333333 L0.583333333,13.5333333 Z" id="Shape" fill-rule="nonzero"></path>
                </g>
            </g>
        </g>
    </g>
</svg>