<svg xmlns="http://www.w3.org/2000/svg" width="16" height="15" viewBox="0 0 16 15">
    <path fill="#FFF" fill-rule="nonzero" d="M15.553 5.526H7.608V9.08h3.996c-.537 1.474-1.84 2.368-3.503 2.368-2.223 0-4.175-1.845-4.175-3.949 0-2.102 1.952-3.945 4.175-3.945 1.064 0 1.962.327 2.6.947l.289.281 2.74-2.644-.298-.279C12.135.643 10.292 0 8.102 0 3.695 0 .243 3.294.243 7.498.244 11.705 3.696 15 8.101 15c4.061 0 6.947-2.299 7.53-6 .077-.48.116-.985.116-1.502a9.83 9.83 0 0 0-.135-1.645l-.06-.327z"/>
</svg>
