<svg xmlns="http://www.w3.org/2000/svg" width="15" height="14" viewBox="0 0 15 14">
    <g fill="none" fill-rule="evenodd">
        <ellipse cx="4.623" cy="4.464" fill="#4285F4" rx="4.623" ry="4.464"/>
        <path fill="#34A853" d="M15 4.971a.919.919 0 0 1-.925.913.919.919 0 0 1-.924-.913c0-.504.414-.913.924-.913s.925.409.925.913z"/>
        <path fill="#EA4335" d="M13.356 7.101a1.838 1.838 0 0 1-1.85 1.827A1.838 1.838 0 0 1 9.659 7.1c0-1.008.827-1.826 1.849-1.826 1.021 0 1.85.818 1.85 1.826z"/>
        <path fill="#FBBC05" d="M13.767 11.87c0 1.176-1.012 2.13-2.26 2.13-1.249 0-2.26-.954-2.26-2.13 0-1.177 1.011-2.13 2.26-2.13 1.248 0 2.26.953 2.26 2.13z"/>
    </g>
</svg>
