<svg xmlns="http://www.w3.org/2000/svg" width="20" height="20" viewBox="0 0 20 20">
    <g fill="#31A79B" fill-rule="evenodd">
        <circle cx="10" cy="14.785" r="1"/>
        <path fill-rule="nonzero" d="M10 0C4.473 0 0 4.473 0 10s4.473 10 10 10 10-4.473 10-10S15.527 0 10 0zm0 18.438A8.433 8.433 0 0 1 1.562 10 8.433 8.433 0 0 1 10 1.562 8.433 8.433 0 0 1 18.438 10 8.433 8.433 0 0 1 10 18.438z"/>
        <path d="M10 5.02a3.129 3.129 0 0 0-3.125 3.125.781.781 0 1 0 1.563 0c0-.862.7-1.563 1.562-1.563.862 0 1.563.701 1.563 1.563 0 .861-.701 1.562-1.563 1.562a.781.781 0 0 0-.781.781v1.953a.781.781 0 1 0 1.562 0v-1.27a3.13 3.13 0 0 0 2.344-3.026A3.129 3.129 0 0 0 10 5.02z"/>
    </g>
</svg>
