<svg xmlns="http://www.w3.org/2000/svg" width="17" height="14" viewBox="0 0 17 14">
    <g fill="none" fill-rule="nonzero">
        <path fill="#54B6AC" d="M7.379 6.32a1.63 1.63 0 0 0 1.627-1.628A1.63 1.63 0 0 0 7.38 3.065 1.63 1.63 0 0 0 5.75 4.692c0 .898.73 1.628 1.628 1.628zm0-2.3a.674.674 0 1 1-.002 1.347.674.674 0 0 1 .002-1.348z"/>
        <path fill="#31A79B" d="M15.696.016H.595A.596.596 0 0 0 0 .61v12.782c0 .328.267.595.595.595h15.101a.596.596 0 0 0 .595-.595V.611a.596.596 0 0 0-.595-.595zm-.36.954v7.554l-3.002-3.002a.503.503 0 0 0-.71 0L7.38 9.768 4.667 7.056a.499.499 0 0 0-.71 0L.954 10.058V.97h14.381zM.955 13.033v-1.625L4.31 8.05l2.712 2.712a.5.5 0 0 0 .71 0l4.247-4.246 3.356 3.357v3.16H.955z"/>
    </g>
</svg>
