<svg xmlns="http://www.w3.org/2000/svg" xmlns:xlink="http://www.w3.org/1999/xlink" width="181" height="37" viewBox="0 0 181 37">
    <defs>
        <path id="a" d="M.025.607H5.2v35.766H.025z"/>
        <path id="c" d="M0 36.393h180.56V.627H0z"/>
    </defs>
    <g fill="none" fill-rule="evenodd">
        <g transform="translate(15.712 .02)">
            <mask id="b" fill="#fff">
                <use xlink:href="#a"/>
            </mask>
            <path fill="#4BBCAC" d="M2.613.607C4.04.607 5.2 8.614 5.2 18.49c0 9.877-1.159 17.883-2.587 17.883-1.429 0-2.588-8.006-2.588-17.883C.025 8.614 1.185.607 2.613.607" mask="url(#b)"/>
        </g>
        <path fill="#50DDC6" d="M24.352 18.51c0 6.925 1.158 12.536 2.586 12.536 1.43 0 2.587-5.6 2.587-12.536 0-6.935-1.158-12.542-2.587-12.542-1.428 0-2.586 5.617-2.586 12.542M10.208 11.493c1.428 0 2.587 3.142 2.587 7.017 0 3.875-1.159 7.016-2.587 7.016-1.429 0-2.588-3.14-2.588-7.016 0-3.875 1.16-7.017 2.588-7.017"/>
        <path fill="#A6E8DD" d="M35.552 10.71c1.429 0 2.588 3.492 2.588 7.8s-1.16 7.8-2.588 7.8c-1.428 0-2.586-3.492-2.586-7.8s1.158-7.8 2.586-7.8M43.172 15.76c1.428 0 2.587 1.231 2.587 2.75s-1.159 2.75-2.587 2.75c-1.43 0-2.587-1.231-2.587-2.75s1.158-2.75 2.587-2.75M.001 18.51a2.671 2.671 0 0 0 2.587 2.75 2.757 2.757 0 0 0 2.588-2.918 2.756 2.756 0 0 0-2.588-2.581A2.67 2.67 0 0 0 .001 18.51"/>
        <path fill="#404040" d="M55.99 25.116a6.382 6.382 0 0 0 1.515 4.49 5.916 5.916 0 0 0 8.214 0 6.192 6.192 0 0 0 1.54-4.39 6.166 6.166 0 0 0-1.54-4.39 5.823 5.823 0 0 0-8.17 0 6.032 6.032 0 0 0-1.558 4.271v.019zm-4.48-.075a9.396 9.396 0 0 1 2.94-6.974c4.013-3.85 10.356-3.85 14.368 0a9.628 9.628 0 0 1 2.922 7.111 9.555 9.555 0 0 1-2.941 7.125 10.067 10.067 0 0 1-7.259 2.86 9.633 9.633 0 0 1-7.146-2.917 9.783 9.783 0 0 1-2.884-7.205zM76.372 15.696h4.4v1.75a7.186 7.186 0 0 1 5.21-2.276 6.557 6.557 0 0 1 5.159 2.082c1.062 1.179 1.596 3.098 1.596 5.77v11.595h-4.4V24.05c0-1.882-.263-3.136-.778-3.87-.516-.733-1.433-1.085-2.766-1.085-1.451 0-2.514.483-3.098 1.436-.585.954-.893 2.597-.893 4.955v9.13h-4.399l-.031-18.92zM111.02 22.613c-.608-2.332-2.075-3.499-4.4-3.499a4.495 4.495 0 0 0-1.496.245c-.455.16-.879.395-1.257.696-.386.31-.719.68-.986 1.097a5.316 5.316 0 0 0-.629 1.461h8.767zm4.5 3.575h-13.607a5.725 5.725 0 0 0 1.514 3.706 4.642 4.642 0 0 0 3.45 1.361c.962.039 1.91-.234 2.703-.778a10.883 10.883 0 0 0 2.395-2.872l3.701 2.057a14.624 14.624 0 0 1-1.81 2.509 9.79 9.79 0 0 1-2.048 1.712 8.174 8.174 0 0 1-2.351.978c-.9.214-1.821.32-2.746.314a8.935 8.935 0 0 1-6.813-2.722c-1.713-1.823-2.57-4.244-2.57-7.262s.837-5.441 2.513-7.268a8.62 8.62 0 0 1 6.662-2.741c2.791 0 4.997.889 6.618 2.665 1.621 1.777 2.418 4.213 2.388 7.306v1.035z"/>
        <path fill="#31A79B" d="M131.307 18.92l-3.62 1.925c-.57-1.167-1.274-1.75-2.112-1.75a1.444 1.444 0 0 0-1.03.402 1.33 1.33 0 0 0-.428 1.015c0 .728.841 1.443 2.514 2.158 2.325 1 3.89 1.919 4.694 2.76a4.717 4.717 0 0 1 1.207 3.373 5.945 5.945 0 0 1-2.024 4.584 6.919 6.919 0 0 1-4.75 1.75c-3.18 0-5.433-1.55-6.757-4.647l3.77-1.725c.322.623.721 1.203 1.189 1.725a2.702 2.702 0 0 0 1.885.74c1.479 0 2.219-.673 2.219-2.02 0-.777-.572-1.502-1.716-2.175-.44-.22-.88-.433-1.326-.628l-1.339-.627a8.317 8.317 0 0 1-2.69-1.881A4.597 4.597 0 0 1 120 20.85a5.4 5.4 0 0 1 1.697-4.082 5.965 5.965 0 0 1 4.204-1.612c2.422.009 4.224 1.263 5.406 3.763M140.847 1.837v19.98l6.171-6.12h5.876l-8.233 7.945 8.837 10.975h-5.657l-6.284-7.984-.697.696v7.288h-4.4V1.837z"/>
        <mask id="d" fill="#fff">
            <use xlink:href="#c"/>
        </mask>
        <path fill="#31A79B" d="M156.288 34.617h4.4v-18.92h-4.4v18.92zm-.628-26.791a2.683 2.683 0 0 1 .836-1.975 2.832 2.832 0 0 1 4.028 0c.55.518.853 1.245.836 2 .013.76-.29 1.49-.836 2.02a2.682 2.682 0 0 1-2.004.834 2.85 2.85 0 0 1-2.86-2.841v-.038zM166.23 34.617h4.4V1.837h-4.4zM176.16 34.617h4.4V1.837h-4.4z" mask="url(#d)"/>
    </g>
</svg>
