<svg xmlns="http://www.w3.org/2000/svg" width="100" height="85" viewBox="0 0 100 85">
    <g fill="none" fill-rule="evenodd">
        <path fill="#E1F1FA" d="M91.818.098H8.182C3.67.098 0 3.787 0 8.321v53.507c0 4.534 3.67 8.223 8.182 8.223H37.2l10.272 13.557a3.173 3.173 0 0 0 2.529 1.259c.992 0 1.927-.466 2.528-1.259l10.272-13.557h29.017c4.511 0 8.182-3.69 8.182-8.223V8.32c0-4.534-3.67-8.223-8.182-8.223z"/>
        <path fill="#CDEBFC" d="M91.818.098H50.001v84.77c.992 0 1.927-.467 2.528-1.26l10.272-13.557h29.017c4.511 0 8.182-3.69 8.182-8.223V8.32c0-4.534-3.67-8.223-8.182-8.223z"/>
        <path fill="#06CCAB" d="M45.966 47.37a3.157 3.157 0 0 1-2.247-.935L33.292 35.957a3.207 3.207 0 0 1 0-4.518 3.166 3.166 0 0 1 4.495 0l8.179 8.22 16.248-16.33a3.165 3.165 0 0 1 4.494 0 3.205 3.205 0 0 1 0 4.518L48.213 46.435a3.16 3.16 0 0 1-2.247.936z"/>
        <path fill="#1CADB5" d="M62.213 23.33L50.001 35.604v9.034l16.707-16.792a3.206 3.206 0 0 0 0-4.516 3.166 3.166 0 0 0-4.495 0z"/>
    </g>
</svg>
