<?xml version="1.0" encoding="UTF-8"?>
<svg width="13px" height="14px" viewBox="0 0 13 14" version="1.1" xmlns="http://www.w3.org/2000/svg" xmlns:xlink="http://www.w3.org/1999/xlink">
    <!-- Generator: Sketch 52.5 (67469) - http://www.bohemiancoding.com/sketch -->
    <title>music-player</title>
    <desc>Created with Sketch.</desc>
    <g id="Page-1" stroke="none" stroke-width="1" fill="none" fill-rule="evenodd">
        <g id="Top&gt;-my-skills-&gt;-[skill]-&gt;-Setup(Premium)" transform="translate(-412.000000, -1589.000000)" fill="#4786FF">
            <g id="Group-2" transform="translate(412.000000, 1564.000000)">
                <g id="music-player" transform="translate(0.000000, 25.000000)">
                    <path d="M12.7537455,0.0633818182 C12.6987636,0.0152727273 12.6262182,-0.00661818182 12.5529091,0.00203636364 L4.662,1.02301818 C4.53498182,1.03956364 4.44003636,1.14749091 4.44003636,1.27552727 L4.44003636,2.80712727 L4.44003636,3.87927273 L4.44003636,10.5063636 C3.99789091,9.99981818 3.30832727,9.67272727 2.5312,9.67272727 C1.1956,9.67272727 0.113018182,10.6351636 0.113018182,11.8221091 C0.113018182,13.0090545 1.1956,13.9714909 2.5312,13.9714909 C3.8668,13.9714909 4.94938182,13.0090545 4.94938182,11.8221091 C4.94938182,11.7376 4.94250909,11.6546182 4.93181818,11.5724 C4.942,11.5449091 4.94938182,11.5161455 4.94938182,11.4850909 L4.94938182,4.10276364 L12.3312,3.14745455 L12.3312,7.96065455 C11.8888,7.45436364 11.1992364,7.12727273 10.4221091,7.12727273 C9.08650909,7.12727273 8.00392727,8.08970909 8.00392727,9.27665455 C8.00392727,10.4636 9.08650909,11.4260364 10.4221091,11.4260364 C11.7577091,11.4260364 12.8402909,10.4636 12.8402909,9.27665455 C12.8402909,9.25323636 12.8372364,9.23058182 12.8364727,9.20741818 C12.8369818,9.20054545 12.8402909,9.19469091 12.8402909,9.18781818 L12.8402909,2.85778182 L12.8402909,1.78589091 L12.8402909,0.254545455 C12.8402909,0.181236364 12.8087273,0.111490909 12.7537455,0.0633818182 Z" id="Path"></path>
                </g>
            </g>
        </g>
    </g>
</svg>