<svg xmlns="http://www.w3.org/2000/svg" width="36" height="36" viewBox="0 0 36 36">
    <g fill="none" fill-rule="evenodd">
        <rect width="36" height="36" fill="#4786FF" fill-rule="nonzero" rx="18"/>
        <path fill="#FFF" d="M16.44 20.18c.68 0 1.307-.17 1.88-.51a3.774 3.774 0 0 0 1.36-1.37c.333-.573.5-1.2.5-1.88 0-.68-.167-1.307-.5-1.88a3.697 3.697 0 0 0-1.36-1.36c-.573-.333-1.2-.5-1.88-.5-.68 0-1.307.167-1.88.5a3.774 3.774 0 0 0-1.37 1.36c-.34.573-.51 1.2-.51 1.88 0 .68.17 1.307.51 1.88.34.573.797 1.03 1.37 1.37.573.34 1.2.51 1.88.51zm5 0l4.14 4.14-1.26 1.26-4.14-4.16v-.66l-.24-.22a4.946 4.946 0 0 1-1.61.95c-.607.22-1.237.33-1.89.33-.987 0-1.897-.24-2.73-.72a5.34 5.34 0 0 1-1.97-1.94 5.315 5.315 0 0 1-.74-2.74c0-.987.243-1.897.73-2.73a5.346 5.346 0 0 1 1.98-1.97 5.374 5.374 0 0 1 2.73-.72c.987 0 1.9.247 2.74.74a5.286 5.286 0 0 1 1.93 1.96c.473.827.71 1.733.71 2.72 0 .667-.11 1.303-.33 1.91a4.946 4.946 0 0 1-.95 1.61l.22.24h.68z"/>
    </g>
</svg>
