<?xml version="1.0" encoding="UTF-8"?>
<svg width="16px" height="16px" viewBox="0 0 16 16" version="1.1" xmlns="http://www.w3.org/2000/svg" xmlns:xlink="http://www.w3.org/1999/xlink">
    <!-- Generator: Sketch 52.5 (67469) - http://www.bohemiancoding.com/sketch -->
    <title>Shape</title>
    <desc>Created with Sketch.</desc>
    <g id="Page-1" stroke="none" stroke-width="1" fill="none" fill-rule="evenodd" opacity="0.75">
        <g id="Top&gt;-my-skills-&gt;-[skill]-&gt;-board(premium)" transform="translate(-405.000000, -188.000000)" fill="#9FA9BA">
            <path d="M419.587703,200.487524 C419.587703,200.404212 419.558552,200.320899 419.500249,200.237587 C419.033524,199.678947 418.658548,199.199785 418.375168,198.799946 C418.550075,198.458411 418.683403,198.141731 418.774999,197.850214 L420.712631,197.550258 C420.78781,197.541819 420.854398,197.498092 420.9127,197.419075 C420.971002,197.339598 421,197.258587 421,197.175275 L421,194.862469 C421,194.770871 420.971002,194.689553 420.9127,194.618822 C420.854398,194.548091 420.783514,194.50421 420.700203,194.487793 L418.800161,194.200265 C418.708258,193.916879 418.566645,193.575037 418.375014,193.175198 C418.499904,192.991696 418.687546,192.741604 418.937632,192.425078 C419.187565,192.108398 419.362779,191.88347 419.46266,191.750139 C419.520962,191.666826 419.550113,191.587503 419.550113,191.512629 C419.550113,191.287547 418.950059,190.620893 417.750259,189.512514 C417.666948,189.445925 417.579494,189.412631 417.487592,189.412631 C417.38771,189.412631 417.3044,189.441476 417.237505,189.500086 L415.762456,190.612608 C415.420927,190.437698 415.108396,190.30851 414.825016,190.225044 L414.537494,188.312537 C414.529362,188.229225 414.48763,188.156192 414.412604,188.093746 C414.337578,188.0313 414.254267,188 414.162518,188 L411.837636,188 C411.646005,188 411.520962,188.100036 411.46266,188.299956 C411.362625,188.683378 411.266887,189.325176 411.175137,190.225044 C410.816885,190.341651 410.496068,190.474981 410.212688,190.625036 L408.775229,189.500086 C408.691918,189.441629 408.604465,189.412631 408.512715,189.412631 C408.354225,189.412631 408.025124,189.658426 407.525105,190.15017 C407.025085,190.64176 406.68325,191.0126 406.500058,191.262692 C406.441602,191.329434 406.412604,191.412746 406.412604,191.512783 C406.412604,191.587657 406.441602,191.670969 406.500058,191.76272 C406.96663,192.321206 407.341606,192.800368 407.624986,193.200207 C407.450079,193.542049 407.31675,193.858576 407.225154,194.150246 L405.287523,194.450049 C405.212497,194.458334 405.145909,194.502062 405.087453,194.581078 C405.029151,194.660402 405,194.741566 405,194.824879 L405,197.137377 C405,197.229129 405.029151,197.310447 405.087453,197.381178 C405.145909,197.452063 405.216639,197.491648 405.300104,197.499933 L407.200146,197.799889 C407.30018,198.116569 407.44609,198.458257 407.63772,198.824955 C407.504392,199.008458 407.308619,199.262692 407.050247,199.587503 C406.791723,199.912622 406.620958,200.133561 406.537647,200.250014 C406.479345,200.333327 406.450194,200.412804 406.450194,200.487524 C406.450194,200.71276 407.050247,201.37926 408.250201,202.487639 C408.333512,202.554228 408.420966,202.587369 408.512715,202.587369 C408.621035,202.587369 408.704346,202.558524 408.762648,202.500067 L410.237697,201.387545 C410.579226,201.562609 410.891757,201.691644 411.175137,201.774956 L411.46266,203.687616 C411.470945,203.770929 411.512677,203.843962 411.587549,203.906408 C411.662575,203.968854 411.745886,204 411.837636,204 L414.162518,204 C414.354302,204 414.479191,203.900117 414.537494,203.700044 C414.637528,203.308184 414.733267,202.662396 414.825016,201.762375 C415.15826,201.662646 415.479076,201.53315 415.787465,201.375117 L417.225078,202.500067 C417.308389,202.558524 417.395842,202.587369 417.487592,202.587369 C417.645928,202.587369 417.973189,202.339579 418.468912,201.84354 C418.964635,201.34796 419.308465,200.974818 419.500249,200.724727 C419.558552,200.666731 419.587703,200.587561 419.587703,200.487524 L419.587703,200.487524 Z M415.262591,198.262634 C414.637682,198.887555 413.883434,199.200092 413.000153,199.200092 C412.11672,199.200092 411.362472,198.887555 410.737563,198.262634 C410.112654,197.637713 409.800123,196.883451 409.800123,196 C409.800123,195.116703 410.112654,194.36244 410.737563,193.737519 C411.362472,193.112445 412.11672,192.800061 413.000153,192.800061 C413.883434,192.800061 414.637682,193.112445 415.262591,193.737519 C415.887653,194.36244 416.200031,195.116703 416.200031,196 C416.200031,196.883451 415.887653,197.637713 415.262591,198.262634 L415.262591,198.262634 Z" id="Shape"></path>
        </g>
    </g>
</svg>