<svg xmlns="http://www.w3.org/2000/svg" width="20" height="20" viewBox="0 0 20 20">
    <path fill="#31A79B" fill-rule="nonzero" d="M10 0C4.486 0 0 4.486 0 10s4.486 10 10 10 10-4.486 10-10S15.514 0 10 0zm1.122 14.35a.724.724 0 0 1-1.09.623.225.225 0 0 1-.04-.03L6.908 12.07a.257.257 0 0 0-.112-.025H4.858a.724.724 0 0 1-.723-.723v-2.98c0-.398.324-.722.723-.722h1.938a.257.257 0 0 0 .112-.025l3.084-2.872a.234.234 0 0 1 .04-.03.722.722 0 0 1 1.09.623v9.033zm1.698-2.304a.232.232 0 0 1-.164-.398c1-1 1-2.629 0-3.63a.233.233 0 1 1 .329-.329 3.036 3.036 0 0 1 0 4.289.232.232 0 0 1-.165.068zm.99.873a.232.232 0 0 1-.33 0 .233.233 0 0 1 0-.33 3.73 3.73 0 0 0 0-5.27.233.233 0 1 1 .33-.329 4.197 4.197 0 0 1 0 5.929z"/>
</svg>
