<?xml version="1.0" encoding="UTF-8"?>
<svg width="20px" height="20px" viewBox="0 0 20 20" version="1.1" xmlns="http://www.w3.org/2000/svg" xmlns:xlink="http://www.w3.org/1999/xlink">
    <!-- Generator: sketchtool 52.5 (67469) - http://www.bohemiancoding.com/sketch -->
    <title>36804ADF-084E-4154-9EBC-21369FF09983</title>
    <desc>Created with sketchtool.</desc>
    <g id="Page-1" stroke="none" stroke-width="1" fill="none" fill-rule="evenodd">
        <g id="Top&gt;-my-skills-&gt;-[skill]-&gt;-board-&gt;-new-post" transform="translate(-947.000000, -359.000000)" fill="#31A79B" fill-rule="nonzero">
            <g id="speaker-(1)" transform="translate(947.000000, 359.000000)">
                <path d="M10,0 C4.486,0 0,4.486 0,10 C0,15.514 4.486,20 10,20 C15.514,20 20,15.514 20,10 C20,4.486 15.514,0 10,0 Z M11.1216774,14.3499555 C11.1216774,14.748659 10.7970321,15.0733044 10.3980956,15.0733044 C10.2707061,15.0733044 10.1442481,15.0386041 10.0322292,14.9726969 C10.0175573,14.9640801 10.0040498,14.953833 9.99170677,14.9421886 L6.90780915,12.0711503 C6.87287601,12.0543824 6.83491533,12.0457655 6.79625599,12.0457655 L4.85793249,12.0457655 C4.45922891,12.0457655 4.13504937,11.7213531 4.13504937,11.3228824 L4.13504937,8.34378424 C4.13504937,7.94531355 4.45922891,7.62090112 4.85793249,7.62090112 L6.79648888,7.62090112 C6.83514822,7.62090112 6.8731089,7.61228428 6.90804204,7.59551637 L9.99170677,4.72447803 C10.0040498,4.71283365 10.0177902,4.70258659 10.0322292,4.69396975 C10.1442481,4.62806256 10.2707061,4.59336231 10.3980956,4.59336231 C10.7970321,4.59336231 11.1216774,4.91800762 11.1216774,5.3167112 L11.1216774,14.3499555 Z M12.8203402,12.0457655 C12.760721,12.0457655 12.7011018,12.0229426 12.6556887,11.9775295 C12.5646296,11.8864704 12.5646296,11.7392855 12.6556887,11.6482264 C13.6564067,10.6475084 13.6564067,9.01915828 12.6556887,8.01844026 C12.5646296,7.92738121 12.5646296,7.78019624 12.6556887,7.68913719 C12.7467477,7.59807814 12.8939327,7.59807814 12.9849917,7.68913719 C14.1673621,8.87150754 14.1673621,10.7951591 12.9849917,11.9775295 C12.9395787,12.0229426 12.8799594,12.0457655 12.8203402,12.0457655 Z M13.8096467,12.9188612 C13.7642337,12.9642742 13.7046144,12.9870972 13.6449952,12.9870972 C13.585376,12.9870972 13.5257568,12.9642742 13.4803437,12.9188612 C13.3892846,12.8278021 13.3892846,12.6806171 13.4803437,12.5895581 C14.9330965,11.1368052 14.9330965,8.77253031 13.4803437,7.31977745 C13.3892846,7.2287184 13.3892846,7.08153344 13.4803437,6.99047439 C13.5714027,6.89941533 13.7185877,6.89941533 13.8096467,6.99047439 C15.4440519,8.62511246 15.4440519,11.2842231 13.8096467,12.9188612 Z" id="Shape"></path>
            </g>
        </g>
    </g>
</svg>