<svg xmlns="http://www.w3.org/2000/svg" width="72" height="72" viewBox="0 0 72 72">
    <g fill="none" fill-rule="evenodd">
        <path fill="#F9EAB0" fill-rule="nonzero" d="M13.424 17.075c.09-.014.18-.02.271-.017h6.25c-1.301.001-5.25.068-6.521.017zm8.836 8.496a27.11 27.11 0 0 1-6.983-.409c-2.455-.65-5.875-2.84-4.778-5.84a3.459 3.459 0 0 1 2.85-2.25 14.527 14.527 0 0 1-3.191-.422c-2.445-.638-5.864-2.849-4.78-5.839a3.425 3.425 0 0 1 3.2-2.263h11.364l-.011-.038h-7.753c-.963 0-1.915.037-2.866.025a16.364 16.364 0 0 1-4.261-.434C2.606 7.465-.824 5.262.271 2.264A3.43 3.43 0 0 1 3.474 0l18.178.025c8.455.004 15.309 6.858 15.312 15.313v.217L22.26 25.571z"/>
        <path fill="#F3D55B" d="M16.815 18.333c-.657 0-1.222 0-1.589-.02a1.24 1.24 0 0 1-.193-2.452c.17-.03.343-.044.516-.042h6.248a1.24 1.24 0 0 1 0 2.478c-.399 0-1.052.007-1.8.015-1.029.01-2.207.02-3.182.02zM11.855 9.788c-.867 0-1.618 0-2.106-.02a1.24 1.24 0 0 1-.142-2.464c.18-.023.363-.033.545-.03h8.379a1.239 1.239 0 1 1 0 2.478c-.536 0-1.413.006-2.418.013-1.373.01-2.953.023-4.258.023z"/>
        <path fill="#F9EAB0" fill-rule="nonzero" d="M54.845 51.965v6.249c.003.09-.003.182-.018.272-.05-1.277.018-5.227.018-6.52zm1.504-17.027h.217c8.455.004 15.308 6.858 15.313 15.313l.024 18.18a3.426 3.426 0 0 1-2.264 3.2c-2.997 1.097-5.204-2.335-5.84-4.778a16.396 16.396 0 0 1-.432-4.262c-.012-.952.024-1.902.024-2.866v-7.752l-.036-.012v11.365a3.422 3.422 0 0 1-2.263 3.201c-2.986 1.084-5.204-2.335-5.84-4.779a14.559 14.559 0 0 1-.42-3.19 3.46 3.46 0 0 1-2.257 2.856c-2.997 1.095-5.188-2.324-5.84-4.78a27.186 27.186 0 0 1-.408-6.983l10.022-14.713z"/>
        <path fill="#F3D55B" d="M54.83 58.486h-.096A1.239 1.239 0 0 1 53.59 57.3c-.038-.911-.016-3.053 0-4.775.009-.744.014-1.397.014-1.795a1.24 1.24 0 0 1 2.477 0v6.249c.004.172-.01.344-.04.514a1.239 1.239 0 0 1-1.212.993zM63.399 63.149h-.077a1.239 1.239 0 0 1-1.164-1.2c-.036-1.173-.014-3.964 0-6.195.01-.98.014-1.835.014-2.354a1.239 1.239 0 1 1 2.478 0v8.164a3.59 3.59 0 0 1-.031.542 1.24 1.24 0 0 1-1.22 1.043z"/>
        <path fill="#F29C1F" d="M36.58 30.824l-16.577-1.846a2.467 2.467 0 0 1 .718-1.87l12.142-12.143a2.415 2.415 0 0 1 1.92-.718l1.797 16.577z"/>
        <path fill="#E57E25" d="M42.936 51.887a2.399 2.399 0 0 1-1.648-.707L20.72 30.613a2.412 2.412 0 0 1-.718-1.635l16.577 1.846.297 2.701c.085.79.71 1.415 1.5 1.5l2.713.309 1.846 16.553z"/>
        <path fill="#F29C1F" d="M57.667 37.217c.024.68-.237 1.34-.719 1.821L44.794 51.18a2.387 2.387 0 0 1-1.858.707L41.09 35.334l16.577 1.883z"/>
        <path fill="#F0C419" d="M57.667 37.217L41.09 35.334l-2.713-.31a1.688 1.688 0 0 1-1.5-1.499l-.297-2.701-1.797-16.577c.598.041 1.161.296 1.587.718l20.578 20.567c.454.444.713 1.05.72 1.685z"/>
        <g fill="#67B9CC">
            <path d="M6.238 44.564a1.238 1.238 0 0 1-.876-2.115l8.673-8.673a1.24 1.24 0 0 1 1.752 1.753L7.114 44.2a1.24 1.24 0 0 1-.876.363zM6.238 56.954a1.239 1.239 0 0 1-.876-2.115l8.673-8.673a1.24 1.24 0 0 1 1.752 1.752L7.114 56.59a1.242 1.242 0 0 1-.876.364zM13.672 61.91a1.238 1.238 0 0 1-.876-2.116l13.628-13.628a1.24 1.24 0 0 1 1.752 1.752L14.548 61.547a1.24 1.24 0 0 1-.876.363zM31.017 69.343a1.239 1.239 0 0 1-.876-2.114l8.673-8.673a1.238 1.238 0 0 1 1.752 1.752l-8.673 8.672a1.238 1.238 0 0 1-.876.363zM18.628 69.343a1.24 1.24 0 0 1-.876-2.114l8.672-8.673a1.239 1.239 0 0 1 1.752 1.752l-8.673 8.672a1.237 1.237 0 0 1-.875.363z"/>
        </g>
    </g>
</svg>
