<svg xmlns="http://www.w3.org/2000/svg" width="72" height="72" viewBox="0 0 72 72">
    <g fill="none" fill-rule="evenodd">
        <path fill="#31A79B" d="M57.59 68.073H11.415C5.37 68.073.466 63.17.466 57.123V10.95C.466 4.903 5.369 0 11.416 0H57.59c6.046 0 10.949 4.903 10.949 10.95v46.173c0 6.047-4.903 10.95-10.95 10.95z" opacity=".712"/>
        <path fill="#FFF" d="M58.066 18.327H34.502a1.309 1.309 0 1 1 0-2.618h23.564a1.309 1.309 0 1 1 0 2.618zM58.066 36.655H34.502a1.309 1.309 0 1 1 0-2.619h23.564a1.309 1.309 0 1 1 0 2.619zM58.066 54.982H34.502a1.309 1.309 0 1 1 0-2.618h23.564a1.309 1.309 0 1 1 0 2.618zM16.268 22.255c-.274 0-.55-.086-.785-.262l-5.984-4.49a1.308 1.308 0 1 1 1.57-2.092l5.004 3.751 8.18-9.54a1.307 1.307 0 0 1 1.845-.142c.549.47.613 1.296.141 1.845l-8.976 10.473a1.31 1.31 0 0 1-.995.457zM16.268 40.582c-.274 0-.55-.085-.785-.262l-5.984-4.489a1.308 1.308 0 1 1 1.57-2.093l5.004 3.752 8.18-9.54a1.307 1.307 0 0 1 1.845-.142c.549.47.613 1.296.141 1.844l-8.976 10.473a1.31 1.31 0 0 1-.995.457zM16.268 60.217c-.274 0-.55-.085-.785-.262l-5.984-4.489a1.308 1.308 0 1 1 1.57-2.093l5.004 3.752 8.18-9.54a1.305 1.305 0 0 1 1.845-.14c.549.469.613 1.295.141 1.844L17.263 59.76a1.31 1.31 0 0 1-.995.457z"/>
        <g>
            <path fill="#EDDCC7" d="M43.451 59.55l-.01.008-2.603 9.544 6.084-6.084z"/>
            <path fill="#8A95A6" d="M68.651 41.289l-1.632-1.633a2.599 2.599 0 0 0-3.675 0l-4.689 4.69 3.47 3.47 6.526-6.527z"/>
            <path fill="#F0C419" d="M58.655 44.345l3.47 3.47-15.203 15.203-3.47-3.47z"/>
            <path fill="#D6C4B1" d="M50.846 66.964l.01-.01-3.934-3.936-6.084 6.084-.174.639z"/>
            <path fill="#5B6B82" d="M66.06 51.751l4.689-4.69a2.599 2.599 0 0 0 0-3.674L68.65 41.29l-6.525 6.526 3.933 3.935z"/>
            <path fill="#F29C1F" d="M50.855 66.955l-3.934-3.935 15.203-15.203 3.934 3.935z"/>
            <path fill="#5E5E5E" d="M39.739 71.975a1.308 1.308 0 0 1-.926-2.235l2.89-2.889a1.308 1.308 0 0 1 1.85 0c.512.512.512 1.34 0 1.851l-2.889 2.89a1.3 1.3 0 0 1-.925.383z"/>
        </g>
    </g>
</svg>
