<svg xmlns="http://www.w3.org/2000/svg" width="72" height="67" viewBox="0 0 72 67">
    <g fill="none" fill-rule="evenodd">
        <path fill="#37474F" fill-rule="nonzero" d="M56.712 36.835a21.529 21.529 0 0 1-2.79-6.734V13.633C53.784 6.028 47.508-.027 39.902.11c-.318.006-.635.023-.952.05-9.663 0-15.522 4.279-17.911 13.082a1.497 1.497 0 0 0 1.128 1.856c3.039.67 6.11 1.18 9.201 1.527a1.497 1.497 0 0 0 1.521-1.033c.88-2.718 1.548-3.455 4.563-3.455 3.498 0 4.345 1.796 4.474 6.057-16.537.913-23.936 5.536-23.936 14.902 0 6.746 7.243 11.977 13.474 11.977a16.024 16.024 0 0 0 11.833-3.806 20.063 20.063 0 0 0 5.533 3.683c.19.08.393.123.599.123.397 0 .779-.157 1.06-.438l5.988-5.988c.48-.48.576-1.224.234-1.811zm-15.213-.42a8.045 8.045 0 0 1-5.543 2.668c-1.365 0-5.826-.539-5.988-7.449a5.177 5.177 0 0 1 1.581-3.779 18.153 18.153 0 0 1 11.893-3.742c.802-.001 1.462.63 1.497 1.43a14.138 14.138 0 0 1-3.44 10.873z"/>
        <g fill="#FFC107">
            <path d="M70.77 48.117c-.423-.108-10.363-2.665-14.914 1.886a1.497 1.497 0 0 0 2.116 2.117c2.396-2.395 7.866-1.94 10.854-1.371-.257 3.317-1.263 8.55-3.464 9.395a1.497 1.497 0 1 0 1.069 2.797c5.036-1.928 5.428-12.177 5.455-13.351a1.497 1.497 0 0 0-1.116-1.473z"/>
            <path d="M65.898 55.551a2.994 2.994 0 0 0-2.994-2.994 2.91 2.91 0 0 0-1.698.554c-20.16 8.015-37.825 6.557-58.973-4.865a1.497 1.497 0 0 0-1.76 2.395c10.5 10.345 22.136 15.525 34.789 15.525a61.193 61.193 0 0 0 28.067-7.638 2.994 2.994 0 0 0 2.569-2.977z"/>
        </g>
    </g>
</svg>
