<svg xmlns="http://www.w3.org/2000/svg" width="72" height="72" viewBox="0 0 72 72">
    <g fill="none" fill-rule="evenodd">
        <path fill="#FFC107" d="M66.735 19.161a7.098 7.098 0 0 1-.114.723 2.438 2.438 0 0 0 1.213 2.644 6.054 6.054 0 0 1 3.028 3.847 6.211 6.211 0 0 1-.75 4.868 2.468 2.468 0 0 0 .246 2.914 6.155 6.155 0 0 1 1.527 4.667 6.293 6.293 0 0 1-2.373 4.344 2.488 2.488 0 0 0-.786 2.827 6.168 6.168 0 0 1-.156 4.92 6.324 6.324 0 0 1-3.708 3.306 2.523 2.523 0 0 0-1.693 2.41 6.29 6.29 0 0 1-6.415 6.414 2.524 2.524 0 0 0-2.408 1.693 6.322 6.322 0 0 1-3.306 3.707 6.168 6.168 0 0 1-4.92.157 2.488 2.488 0 0 0-2.827.786 6.293 6.293 0 0 1-4.344 2.373 6.153 6.153 0 0 1-4.668-1.527 2.468 2.468 0 0 0-2.914-.247 6.211 6.211 0 0 1-4.868.75 6.054 6.054 0 0 1-3.847-3.027 2.438 2.438 0 0 0-2.651-1.203c-.239.05-.48.088-.723.114l47.457-47.46zM52.776 5.203L5.32 52.66c.025-.243.062-.484.112-.723a2.438 2.438 0 0 0-1.213-2.644 6.052 6.052 0 0 1-3.027-3.847 6.209 6.209 0 0 1 .75-4.868 2.468 2.468 0 0 0-.247-2.914 6.155 6.155 0 0 1-1.522-4.667 6.292 6.292 0 0 1 2.373-4.345 2.487 2.487 0 0 0 .788-2.826 6.168 6.168 0 0 1 .157-4.92A6.321 6.321 0 0 1 7.197 17.6a2.525 2.525 0 0 0 1.688-2.41A6.29 6.29 0 0 1 15.3 8.777a2.522 2.522 0 0 0 2.416-1.698 6.326 6.326 0 0 1 3.307-3.701 6.17 6.17 0 0 1 4.92-.16 2.488 2.488 0 0 0 2.826-.786A6.29 6.29 0 0 1 33.113.056c1.7-.161 3.39.391 4.667 1.526a2.468 2.468 0 0 0 2.914.247 6.21 6.21 0 0 1 4.87-.75 6.054 6.054 0 0 1 3.846 3.027 2.438 2.438 0 0 0 2.643 1.208c.24-.05.48-.087.723-.111z"/>
        <path fill="#31A79B" d="M25.122 60.774a27.154 27.154 0 0 0 35.769-35.769L25.122 60.774zM11.164 46.816a27.154 27.154 0 0 1 35.768-35.769L11.164 46.816z"/>
        <path fill="#D1D4D1" d="M14.994 42.986a22.18 22.18 0 0 1 28.109-28.108L14.994 42.986zM28.952 56.943A22.176 22.176 0 0 0 57.06 28.835L28.952 56.943z"/>
        <g fill="#31A79B">
            <path d="M12.474 67.678c-.484 0-.922-.284-1.121-.724l-4.364-9.597a1.233 1.233 0 0 1 1.633-1.632l9.595 4.366a1.233 1.233 0 1 1-1.021 2.246l-6.6-3.005 3 6.601a1.234 1.234 0 0 1-1.122 1.745z"/>
            <path d="M11.382 65.273a1.233 1.233 0 0 1-.872-2.097l3.927-3.93a1.233 1.233 0 0 1 1.744 1.745l-3.925 3.926c-.232.23-.547.359-.874.356z"/>
            <path fill-rule="nonzero" d="M21.197 58.954c-.327 0-.641-.13-.872-.361l-3.476-3.476-.015-.015-.014-.014-2.603-2.602a2.467 2.467 0 0 1 0-3.49l.873-.873a3.702 3.702 0 1 1 5.236 5.235l-.874.872 2.618 2.618a1.234 1.234 0 0 1-.874 2.106zm-3.49-9.447c-.327 0-.641.13-.873.362l-.872.872 1.744 1.745.874-.873a1.234 1.234 0 0 0-.873-2.106zM28.176 51.975c-.327 0-.641-.13-.873-.362l-6.106-6.106a2.467 2.467 0 0 1 0-3.49l.873-.872a3.702 3.702 0 0 1 5.233 5.234l-.872.872 2.617 2.618a1.234 1.234 0 0 1-.872 2.106zm-3.49-9.447c-.326 0-.64.13-.871.361l-.873.873 1.745 1.745.872-.873a1.234 1.234 0 0 0-.872-2.106zM35.155 44.995c-.327 0-.64-.13-.872-.361l-6.107-6.107a2.467 2.467 0 0 1 0-3.489l.872-.872A3.701 3.701 0 0 1 34.6 39.04h4.043a1.234 1.234 0 1 1 0 2.467h-3.999l1.383 1.383a1.234 1.234 0 0 1-.872 2.106zm-3.49-9.445c-.327 0-.641.13-.873.36l-.872.873 1.746 1.745.872-.873a1.233 1.233 0 0 0-.873-2.105zM42.133 36.992a3.689 3.689 0 0 1-2.617-1.082l-3.489-3.49a3.701 3.701 0 0 1 0-5.233 3.788 3.788 0 0 1 5.235 0l3.489 3.487a3.708 3.708 0 0 1 0 5.235 3.689 3.689 0 0 1-2.618 1.083zm-3.489-8.423a1.235 1.235 0 0 0-.872 2.106l3.489 3.491a1.235 1.235 0 0 0 1.744-1.746l-3.489-3.489a1.222 1.222 0 0 0-.872-.362z"/>
            <path d="M50.858 29.293c-.224 0-.443-.061-.635-.176L41.5 23.883a1.232 1.232 0 0 1 .036-2.137 1.233 1.233 0 0 1 1.234.02l4.49 2.697-2.694-4.493a1.234 1.234 0 0 1 2.116-1.27l5.233 8.725a1.235 1.235 0 0 1-1.057 1.868zM56.093 24.06c-.328 0-.641-.131-.873-.362l-6.979-6.98a1.234 1.234 0 0 1 0-1.745l3.49-3.49a1.234 1.234 0 0 1 1.744 1.744l-2.617 2.617 5.243 5.243 2.653-2.598a1.234 1.234 0 1 1 1.727 1.763l-3.524 3.454a1.236 1.236 0 0 1-.864.353z"/>
            <path d="M52.602 20.57a1.234 1.234 0 0 1-.872-2.107l2.618-2.617a1.234 1.234 0 1 1 1.745 1.745l-2.618 2.617a1.236 1.236 0 0 1-.873.361z"/>
            <path fill-rule="nonzero" d="M63.07 17.079c-.326 0-.64-.13-.871-.362L55.22 9.74a1.234 1.234 0 0 1 0-1.744l.873-.872a4.934 4.934 0 0 1 6.978 0l1.744 1.744a4.935 4.935 0 0 1 0 6.978l-.872.872a1.236 1.236 0 0 1-.872.362zm-5.233-8.212l5.234 5.233a2.467 2.467 0 0 0 0-3.489l-1.745-1.744a2.529 2.529 0 0 0-3.489 0z"/>
        </g>
    </g>
</svg>
