<svg xmlns="http://www.w3.org/2000/svg" width="72" height="66" viewBox="0 0 72 66">
    <g fill="none" fill-rule="evenodd">
        <path fill="#FFC107" d="M45 12.375H27A5.631 5.631 0 0 0 21.375 18v22.5c0 .621.504 1.125 1.125 1.125h27c.621 0 1.125-.504 1.125-1.125V18A5.631 5.631 0 0 0 45 12.375z"/>
        <path fill="#F29C1F" d="M24.75 40.5V18a5.631 5.631 0 0 1 5.625-5.625H27A5.631 5.631 0 0 0 21.375 18v22.5c0 .621.504 1.125 1.125 1.125h3.375A1.125 1.125 0 0 1 24.75 40.5z"/>
        <path fill="#73BFBF" d="M68.625 39.375H3.375A3.379 3.379 0 0 0 0 42.75v19.125a3.379 3.379 0 0 0 3.375 3.375h65.25A3.379 3.379 0 0 0 72 61.875V42.75a3.379 3.379 0 0 0-3.375-3.375z"/>
        <path fill="#79D1D1" d="M3.375 42.75h65.25v19.125H3.375z"/>
        <g fill="#37474F">
            <path d="M36 5.625A1.125 1.125 0 0 1 34.875 4.5V1.125a1.125 1.125 0 0 1 2.25 0V4.5c0 .621-.504 1.125-1.125 1.125zM27.25 9.25c-.289 0-.576-.11-.796-.33l-2.387-2.386a1.125 1.125 0 1 1 1.591-1.591l2.387 2.386c.693.693.188 1.92-.796 1.92zM44.75 9.25c-.983 0-1.488-1.228-.795-1.921l2.387-2.386a1.125 1.125 0 1 1 1.59 1.59L45.547 8.92c-.22.22-.508.33-.795.33z"/>
        </g>
        <g fill="#FFF">
            <path fill-rule="nonzero" d="M14.625 60.75H9a3.379 3.379 0 0 1-3.375-3.375V47.25A3.379 3.379 0 0 1 9 43.875h5.625A3.379 3.379 0 0 1 18 47.25v10.125a3.379 3.379 0 0 1-3.375 3.375zM9 46.125c-.62 0-1.125.505-1.125 1.125v10.125c0 .62.505 1.125 1.125 1.125h5.625c.62 0 1.125-.505 1.125-1.125V47.25c0-.62-.505-1.125-1.125-1.125H9z"/>
            <path d="M30.375 60.75c-.362 0-.71-.175-.925-.485l-8.075-11.664v11.024a1.125 1.125 0 0 1-2.25 0V45a1.125 1.125 0 0 1 2.05-.64l8.075 11.664V45a1.125 1.125 0 0 1 2.25 0v14.625c0 .613-.511 1.125-1.125 1.125z"/>
            <path fill-rule="nonzero" d="M50.522 59.153l-6.75-14.625c-.395-.853-1.65-.853-2.043 0l-6.75 14.625a1.125 1.125 0 1 0 2.043.943l2.295-4.974.058.003h6.75c.02 0 .038-.002.058-.003l2.296 4.974c.19.412.596.654 1.022.654.808 0 1.358-.865 1.02-1.597zm-10.168-6.278l2.396-5.19 2.396 5.19h-4.792z"/>
            <path d="M52.875 60.75a1.125 1.125 0 0 1-1.125-1.125V45A1.125 1.125 0 0 1 54 45v14.625c0 .621-.504 1.125-1.125 1.125z"/>
            <path fill-rule="nonzero" d="M65.25 60.75a1.12 1.12 0 0 1-.72-.26l-6.75-5.626a1.126 1.126 0 0 1-.405-.853v5.614a1.125 1.125 0 0 1-2.25 0V45c0-.621.504-1.125 1.125-1.125H63a3.379 3.379 0 0 1 3.375 3.375v4.5A3.379 3.379 0 0 1 63 55.125h-1.393l4.363 3.636c.344.286.486.763.356 1.191a1.136 1.136 0 0 1-1.077.798zm-7.875-14.625v7.863a1.124 1.124 0 0 1 1.125-1.113H63c.62 0 1.125-.505 1.125-1.125v-4.5c0-.62-.505-1.125-1.125-1.125h-5.625z"/>
        </g>
    </g>
</svg>
