<svg xmlns="http://www.w3.org/2000/svg" width="25" height="17" viewBox="0 0 25 17">
    <g fill="none" fill-rule="evenodd">
        <ellipse cx="9.953" cy="8.424" fill="#4BBCAC" rx="1.171" ry="8.424"/>
        <path fill="#50DDC6" d="M13.173 8.277c0 3.265.525 5.91 1.171 5.91.647 0 1.171-2.64 1.171-5.91s-.524-5.912-1.17-5.912c-.647 0-1.172 2.648-1.172 5.912z"/>
        <ellipse cx="5.562" cy="8.276" fill="#50DDC6" rx="1.171" ry="3.251"/>
        <ellipse cx="18.735" cy="8.424" fill="#A6E8DD" rx="1.171" ry="3.695"/>
        <ellipse cx="23.419" cy="8.424" fill="#A6E8DD" rx="1.171" ry="1.33"/>
        <path fill="#A6E8DD" d="M0 8.424c-.02.712.503 1.307 1.17 1.33.658-.043 1.172-.625 1.172-1.33 0-.705-.514-1.287-1.172-1.33-.667.023-1.19.618-1.17 1.33z"/>
    </g>
</svg>
