<svg xmlns="http://www.w3.org/2000/svg" width="18" height="18" viewBox="0 0 18 18">
    <g fill="none" fill-rule="evenodd">
        <circle cx="9" cy="9" r="9" fill="#F0F0F0"/>
        <g fill="#0052B4">
            <path d="M1.86 3.52A8.967 8.967 0 0 0 .31 6.653h4.682L1.86 3.521zM17.69 6.652a8.968 8.968 0 0 0-1.55-3.131l-3.132 3.131h4.682zM.31 11.348a8.968 8.968 0 0 0 1.55 3.131l3.132-3.131H.31zM14.48 1.86A8.968 8.968 0 0 0 11.347.31v4.682l3.131-3.131zM3.52 16.14c.92.706 1.98 1.24 3.132 1.55v-4.682l-3.131 3.131zM6.652.31a8.968 8.968 0 0 0-3.131 1.55l3.131 3.132V.31zM11.348 17.69a8.968 8.968 0 0 0 3.131-1.55l-3.131-3.132v4.682zM13.008 11.348l3.132 3.131a8.968 8.968 0 0 0 1.55-3.131h-4.682z"/>
        </g>
        <g fill="#D80027">
            <path d="M17.924 7.826h-7.75V.076a9.09 9.09 0 0 0-2.348 0v7.75H.076a9.09 9.09 0 0 0 0 2.348h7.75v7.75a9.089 9.089 0 0 0 2.348 0v-7.75h7.75a9.089 9.089 0 0 0 0-2.348z"/>
            <path d="M11.348 11.348l4.016 4.016c.185-.185.36-.378.529-.578l-3.438-3.438h-1.107zM6.652 11.348l-4.016 4.016c.185.185.378.36.578.529l3.438-3.438v-1.107zM6.652 6.652L2.636 2.636c-.185.185-.36.378-.529.578l3.438 3.438h1.107zM11.348 6.652l4.016-4.016a9.012 9.012 0 0 0-.578-.529l-3.438 3.438v1.107z"/>
        </g>
    </g>
</svg>
