<svg xmlns="http://www.w3.org/2000/svg" width="18" height="18" viewBox="0 0 18 18">
    <g fill="none" fill-rule="evenodd">
        <circle cx="9" cy="9" r="9" fill="#F0F0F0"/>
        <g fill="#D80027">
            <path d="M8.609 9H18c0-.812-.108-1.6-.31-2.348H8.609V9zM8.609 4.304h8.07a9.047 9.047 0 0 0-2.077-2.347H8.61v2.347zM9 18a8.961 8.961 0 0 0 5.602-1.957H3.398A8.961 8.961 0 0 0 9 18zM1.321 13.696h15.358a8.946 8.946 0 0 0 1.011-2.348H.31a8.946 8.946 0 0 0 1.011 2.348z"/>
        </g>
        <path fill="#0052B4" fill-rule="nonzero" d="M4.169 1.405h.82l-.763.555.292.897-.763-.555-.763.555.252-.775a9.05 9.05 0 0 0-1.746 1.945h.263l-.486.353a8.985 8.985 0 0 0-.217.385l.231.713-.432-.314c-.108.228-.206.46-.295.699l.256.786h.943l-.763.554.291.897-.762-.554-.457.332C.024 8.245 0 8.62 0 9h9V0a8.957 8.957 0 0 0-4.831 1.405zM4.518 8.1l-.763-.554-.763.554.291-.897-.763-.554h.943l.292-.897.291.897h.943l-.763.554.292.897zm-.292-3.519l.292.897-.763-.554-.763.554.291-.897-.763-.554h.943l.292-.897.291.897h.943l-.763.554zM7.746 8.1l-.763-.554-.763.554.292-.897-.763-.554h.943l.291-.897.291.897h.943l-.763.554.292.897zm-.292-3.519l.292.897-.763-.554-.763.554.292-.897-.763-.554h.943l.291-.897.291.897h.943l-.763.554zm0-2.621l.292.897-.763-.555-.763.555.292-.897-.763-.555h.943L6.983.51l.291.896h.943l-.763.555z"/>
    </g>
</svg>
