<svg xmlns="http://www.w3.org/2000/svg" width="66" height="46" viewBox="0 0 66 46">
    <g fill="none" fill-rule="evenodd">
        <path fill="#FFF" stroke="#E6E7E8" d="M.5 3v40a2.51 2.51 0 0 0 2.507 2.5h59.986A2.505 2.505 0 0 0 65.5 43V3A2.51 2.51 0 0 0 62.993.5H3.007A2.505 2.505 0 0 0 .5 3z"/>
        <path fill="#4CAF50" d="M39.343 17.696c-1.392-3.983-5.587-6.657-10.44-6.657-6.012 0-10.903 4.192-10.903 9.346a8.795 8.795 0 0 0 3.846 7.115l-1.288 2.574a.623.623 0 0 0 .873.82l3.297-1.885c.894.316 1.822.528 2.765.633a.623.623 0 0 0 .678-.761 7.227 7.227 0 0 1-.202-1.643c0-4.808 4.751-8.722 10.592-8.722l.183.008a.658.658 0 0 0 .516-.258.623.623 0 0 0 .083-.57z"/>
        <g fill="#FAFAFA">
            <path d="M24.854 14.777a1.87 1.87 0 1 0 0 3.739 1.87 1.87 0 0 0 0-3.739zM32.33 14.777a1.87 1.87 0 1 0 0 3.739 1.87 1.87 0 0 0 0-3.739z"/>
        </g>
        <path fill="#4CAF50" d="M47.907 27.238c0-4.123-4.192-7.476-9.346-7.476s-9.346 3.353-9.346 7.476c0 4.124 4.192 7.477 9.346 7.477.967 0 1.93-.123 2.866-.364l3.089 1.544a.623.623 0 0 0 .857-.789l-.846-2.118a7.027 7.027 0 0 0 3.38-5.75z"/>
        <g fill="#FAFAFA">
            <path d="M35.446 23.5a1.246 1.246 0 1 0 0 2.492 1.246 1.246 0 0 0 0-2.492zM41.676 23.5a1.246 1.246 0 1 0 0 2.492 1.246 1.246 0 0 0 0-2.492z"/>
        </g>
    </g>
</svg>
